<?xml version="1.0" standalone="no"?>
<!DOCTYPE svg PUBLIC "-//W3C//DTD SVG 20010904//EN"
 "http://www.w3.org/TR/2001/REC-SVG-20010904/DTD/svg10.dtd">
<svg version="1.0" xmlns="http://www.w3.org/2000/svg"
 width="700.000000pt" height="700.000000pt" viewBox="0 0 700.000000 700.000000"
 preserveAspectRatio="xMidYMid meet">
<metadata>
Created by potrace 1.11, written by Peter Selinger 2001-2013
</metadata>
<g transform="translate(0.000000,700.000000) scale(0.100000,-0.100000)"
fill="#000000" stroke="none">
<path d="M3478 6715 c-2 -1 -46 -5 -98 -9 -52 -3 -106 -8 -120 -10 -14 -3 -47
-7 -75 -11 -47 -5 -181 -28 -232 -40 -13 -3 -32 -7 -44 -10 -11 -2 -29 -7 -39
-10 -10 -3 -27 -7 -37 -9 -73 -14 -273 -80 -412 -136 -224 -89 -372 -167 -601
-317 -342 -223 -673 -552 -905 -900 -41 -61 -84 -127 -95 -147 -11 -20 -28
-51 -39 -69 -102 -180 -195 -390 -260 -587 -39 -119 -104 -366 -115 -440 -3
-19 -10 -69 -16 -110 -6 -41 -13 -86 -15 -99 -19 -113 -26 -516 -11 -656 16
-163 23 -215 42 -320 76 -405 222 -785 437 -1135 39 -63 74 -117 77 -120 4 -3
13 -16 20 -30 23 -44 154 -202 241 -291 315 -323 757 -576 1226 -704 54 -15
107 -29 118 -31 11 -2 54 -10 95 -18 41 -8 95 -18 120 -22 25 -3 53 -8 63 -10
26 -5 254 -17 317 -17 69 0 268 12 300 18 13 3 64 12 113 20 368 64 723 244
980 499 189 187 340 421 461 711 21 50 43 104 51 120 19 44 59 155 135 380
103 303 148 421 200 527 118 238 265 391 487 504 47 24 90 44 95 44 6 0 53 22
107 48 296 149 510 377 601 642 21 62 24 71 30 95 1 6 6 19 10 30 22 57 31
291 17 405 -35 269 -155 543 -361 820 -133 179 -342 402 -505 540 -29 25 -70
59 -90 76 -79 69 -301 228 -403 289 -329 198 -674 337 -1040 419 -129 29 -120
28 -308 51 -108 14 -511 29 -522 20z m1798 -2580 c153 -35 278 -121 326 -224
31 -66 31 -188 -1 -253 -33 -70 -54 -93 -158 -170 -158 -118 -274 -243 -369
-397 -51 -83 -97 -128 -163 -158 -106 -50 -238 -39 -328 27 -55 40 -117 135
-144 219 -27 82 -36 260 -20 357 44 249 188 440 411 544 51 24 152 57 190 62
74 11 195 7 256 -7z"/>
</g>
</svg>
